<?xml version="1.0" encoding="utf-8"?>
<!-- Generator: Adobe Illustrator 16.0.0, SVG Export Plug-In . SVG Version: 6.00 Build 0)  -->
<!DOCTYPE svg PUBLIC "-//W3C//DTD SVG 1.1//EN" "http://www.w3.org/Graphics/SVG/1.1/DTD/svg11.dtd">
<svg version="1.1" id="Layer_1" xmlns="http://www.w3.org/2000/svg" xmlns:xlink="http://www.w3.org/1999/xlink" x="0px" y="0px"
	 width="185px" height="62px" viewBox="0 0 185 62" enable-background="new 0 0 185 62" xml:space="preserve">
<g>
	
		<text transform="matrix(0.7462 0 0 1 4.1055 57.6719)" fill="#FFFFFF" stroke="#000000" stroke-width="0.5" stroke-miterlimit="10" font-family="'StarJedi'" font-size="35.9018">Tecnologia</text>
	<polyline fill="#FFFFFF" points="18.201,32.679 20.557,32.679 20.557,40.99 19.146,40.99 19.146,39.577 18.201,39.577 	"/>
	<path fill="#FFFFFF" d="M21.006,37.354"/>
	<polygon fill="#FFFFFF" points="160.89,54.847 160.89,57.009 161.369,55.575 161.664,57.341 159.881,57.341 	"/>
</g>
<g>
	<rect x="7.915" y="3.428" fill="none" width="165.705" height="29.25"/>
	
		<text transform="matrix(1.1083 0 0 1 11.6021 27.3979)" fill="#FFFFFF" stroke="#000000" stroke-width="0.5" stroke-miterlimit="10" font-family="'StarJedi'" font-size="34">semana</text>
	<path fill="#FFFFFF" d="M86.847,25.553"/>
	<polygon fill="#FFFFFF" points="86.847,24.225 86.847,26.897 87.523,25.1 88.483,27.147 84.918,27.147 	"/>
	<path fill="#FFFFFF" d="M90.501,24.834"/>
	<path fill="#FFFFFF" d="M111.779,24.241"/>
	<polygon fill="#FFFFFF" points="57.083,20.491 58.499,20.491 58.499,19.491 59.629,19.631 59.434,27.147 57.285,27.147 	"/>
	<polygon fill="#FFFFFF" points="32.126,3.663 34.83,3.663 34.023,10.319 31.98,10.319 	"/>
	<polygon fill="#FFFFFF" points="141.765,22.694 141.765,24.991 142.503,22.897 142.862,27.147 139.891,27.147 	"/>
	<polygon fill="#FFFFFF" points="115.933,24.647 116.306,25.709 116.612,26.381 116.888,27.147 115.933,27.147 	"/>
	<polygon fill="#FFFFFF" points="117.987,27.147 117.125,27.147 117.125,26.006 118.491,26.006 	"/>
</g>
<text transform="matrix(1 0 0 1 79.4941 35.166)" fill="#FFFFFF" stroke="#000000" stroke-width="0.5" stroke-miterlimit="10" font-family="'StarJedi'" font-size="17">de</text>
</svg>
