<?xml version="1.0" encoding="utf-8"?>
<!-- Generator: Adobe Illustrator 16.0.0, SVG Export Plug-In . SVG Version: 6.00 Build 0)  -->
<!DOCTYPE svg PUBLIC "-//W3C//DTD SVG 1.1//EN" "http://www.w3.org/Graphics/SVG/1.1/DTD/svg11.dtd">
<svg version="1.1" id="Layer_1" xmlns="http://www.w3.org/2000/svg" xmlns:xlink="http://www.w3.org/1999/xlink" x="0px" y="0px"
	 width="185px" height="62px" viewBox="0 0 185 62" enable-background="new 0 0 185 62" xml:space="preserve">
<g display="none">
	<g display="inline">
		<path fill-rule="evenodd" clip-rule="evenodd" fill="#FFFFFF" d="M5.561,54.177c0-15.416,0-30.833,0-46.25
			c57.709,0,115.418,0,173.127,0c0,15.417,0,30.833,0,46.25C120.979,54.177,63.27,54.177,5.561,54.177z M137.469,28.135
			c0.65,0,1.269-0.005,1.886,0.001c0.915,0.009,2.053-0.299,2.68,0.132c0.618,0.425,0.762,1.589,1.036,2.454
			c0.243,0.764,0.727,1.122,1.492,1.124c2.422,0.007,4.844,0.025,7.266-0.01c1.091-0.016,1.52-0.688,1.174-1.727
			c-2.245-6.747-4.503-13.489-6.735-20.24c-0.244-0.739-0.71-1.052-1.437-1.053c-3.249-0.005-6.498-0.001-9.746-0.003
			c-0.744,0-1.195,0.328-1.424,1.064c-0.567,1.831-1.183,3.648-1.781,5.47c-0.529,1.608-1.063,3.216-1.595,4.823
			c-0.067-0.01-0.134-0.02-0.201-0.03c0-0.277,0-0.553,0-0.83c0-2.895,0.002-5.789-0.001-8.683c-0.002-1.461-0.359-1.81-1.849-1.813
			c-1.565-0.003-3.13-0.001-4.695-0.001c-2.263,0-2.412,0.149-2.412,2.4c0,1.036,0,2.072,0,3.108
			c-1.492-1.585-2.757-3.215-4.089-4.787c-0.291-0.343-0.815-0.672-1.243-0.686c-2.124-0.07-4.252-0.052-6.378-0.023
			c-0.857,0.012-1.252,0.472-1.263,1.377c-0.017,1.565-0.005,3.131-0.005,4.696c0,2.559,0,5.118,0,7.676
			c-0.262-0.312-0.401-0.653-0.518-1.003c-1.281-3.833-2.583-7.66-3.821-11.507c-0.297-0.923-0.82-1.266-1.744-1.259
			c-3.101,0.021-6.202,0.022-9.303,0c-0.893-0.006-1.399,0.321-1.682,1.21c-1.188,3.738-2.431,7.458-3.657,11.185
			c-0.106,0.323-0.233,0.638-0.351,0.958c-0.135-3.92-0.132-7.807-0.137-11.694c-0.001-1.264-0.377-1.643-1.632-1.648
			c-1.86-0.008-3.722,0.028-5.582-0.015c-0.915-0.021-1.479,0.33-1.889,1.147c-1.042,2.083-2.142,4.138-3.266,6.294
			c-0.224-0.397-0.417-0.721-0.593-1.055c-0.906-1.724-1.85-3.43-2.692-5.184c-0.437-0.91-1.058-1.204-2.025-1.206
			c-2.951-0.005-5.9,0.05-8.851,0.028c-5.493-0.042-10.987-0.012-16.48-0.012c-3.839,0-7.679-0.033-11.518,0.013
			c-2.32,0.028-4.215,0.895-5.169,3.173c-0.645,1.539-0.788,3.122-0.291,4.758c0.646,2.126,1.918,3.835,3.456,5.375
			c0.42,0.42,0.908,0.772,1.365,1.155c-0.069,0.078-0.138,0.156-0.207,0.234c-1.476,0-2.951-0.007-4.427,0.002
			c-1.166,0.008-1.542,0.38-1.548,1.542c-0.01,1.683-0.005,3.367-0.002,5.05c0.002,1.402,0.327,1.732,1.714,1.733
			c3.337,0.003,6.675,0.03,10.012-0.012c1.703-0.021,3.235-0.615,4.525-1.752c0.309-0.272,0.554-0.617,0.924-1.036
			c0,0.352,0,0.528,0,0.704c0.011,1.919,0.193,2.097,2.154,2.097c8.063,0,16.125,0.001,24.188,0c1.66,0,1.969-0.31,1.971-1.958
			c0.001-0.942,0-1.885,0-2.828c0.884,1.325,1.513,2.691,2.26,3.989c0.211,0.366,0.774,0.749,1.163,0.735
			c0.435-0.015,0.912-0.412,1.261-0.754c0.287-0.28,0.413-0.723,0.723-1.309c0,1.393,0,2.519,0,3.542
			c-1.972,0-3.883-0.01-5.795,0.003c-1.177,0.008-1.565,0.416-1.577,1.622c-0.009,0.897-0.002,1.795-0.002,2.927
			c-1.08-1.352-2.035-2.471-2.898-3.656c-0.471-0.646-1.028-0.903-1.795-0.901c-4.662,0.011-9.325-0.031-13.986,0.021
			c-2.489,0.028-4.879,0.595-6.931,2.081c-0.904,0.655-1.66,1.515-2.522,2.317c0-0.819,0-1.614,0-2.409
			c-0.001-1.706-0.299-2.011-2.009-2.004c-4.812,0.021-9.624,0.068-14.436,0.067c-5.491-0.002-10.982-0.048-16.474-0.065
			c-1.359-0.005-1.739,0.387-1.745,1.737c-0.005,1.299-0.01,2.599,0.001,3.898c0.012,1.257,0.393,1.628,1.648,1.632
			c1.286,0.004,2.572,0.001,3.926,0.001c0,0.446,0,0.767,0,1.087c0,3.249-0.005,6.498,0.003,9.746
			c0.003,1.144,0.409,1.551,1.543,1.562c1.536,0.014,3.071,0.012,4.607,0.001c1.303-0.01,1.674-0.391,1.676-1.707
			c0.004-3.219,0.001-6.438,0.001-9.657c0-0.315,0-0.632,0-0.979c1.409,0,2.719,0,4.1,0c0,0.372,0,0.69,0,1.01
			c0,3.249-0.004,6.497,0.002,9.746c0.003,1.212,0.386,1.582,1.593,1.595c0.354,0.004,0.709,0.001,1.063,0.001
			c4.814,0,9.628,0.002,14.442-0.002c1.223-0.001,1.5-0.286,1.513-1.517c0.004-0.429,0.001-0.857,0.001-1.453
			c2.343,2.034,4.983,2.894,7.847,2.94c4.782,0.077,9.565,0.031,14.348,0.027c1.05-0.001,1.362-0.318,1.385-1.385
			c0.021-0.962,0.004-1.925,0.004-2.887c1.14,1.138,2.067,2.378,3.094,3.529c0.329,0.369,0.911,0.688,1.393,0.712
			c1.679,0.086,3.365,0.045,5.048,0.029c0.928-0.01,1.347-0.42,1.395-1.348c0.028-0.539,0.005-1.08,0.005-1.811
			c2.792,2.958,6.18,3.63,9.792,3.488c3.647-0.144,6.935-1.17,9.196-4.635c0,1.132-0.014,1.987,0.003,2.842
			c0.021,1.05,0.417,1.461,1.455,1.463c4.813,0.009,9.628,0.009,14.441,0c0.972-0.002,1.38-0.419,1.428-1.406
			c0.021-0.454,0.004-0.91,0.004-1.584c2.07,2.189,4.527,3.021,7.195,3.254c3.491,0.305,6.89-0.044,9.704-2.393
			c0.977-0.815,1.671-1.969,2.486-2.958c1.928,3.46,5.235,4.927,9.063,5.023c6.788,0.172,13.583,0.06,20.375,0.068
			c0.717,0.001,1.164-0.34,1.377-1.017c0.098-0.31,0.262-0.604,0.314-0.919c0.171-1.009,0.688-1.431,1.744-1.271
			c0.776,0.117,1.735-0.175,2.316,0.189c0.495,0.31,0.6,1.286,0.817,1.985c0.227,0.727,0.663,1.049,1.43,1.039
			c2.008-0.023,4.017,0.004,6.024-0.012c1.156-0.01,1.547-0.561,1.181-1.664c-1.855-5.602-3.729-11.197-5.579-16.8
			c-0.281-0.853-0.792-1.229-1.698-1.218c-2.54,0.03-5.08,0.033-7.62-0.001c-0.949-0.014-1.455,0.38-1.738,1.275
			c-0.854,2.699-1.757,5.383-2.645,8.071c-0.086,0.262-0.195,0.516-0.293,0.773c-0.137-2.829-0.134-5.627-0.139-8.425
			c-0.002-1.314-0.366-1.677-1.692-1.682c-1.888-0.007-3.775-0.018-5.663,0.007c-3.275,0.04-6.561-0.041-9.821,0.205
			c-2.783,0.211-5.231,1.397-7.034,3.652c-0.353,0.441-0.655,0.923-1.018,1.439c-1.147-2.295-2.912-3.741-5.221-4.513
			c-3.267-1.091-6.564-1.112-9.83-0.029c-3.31,1.098-5.357,3.402-5.929,6.849c-0.255,1.545-0.189,3.143-0.27,4.737
			c-2.334,0-4.8,0-7.349,0c0-0.37,0-0.688,0-1.008c0-3.131,0-6.261,0-9.392c0-1.668-0.195-1.86-1.861-1.963
			c-0.217-0.014-0.554-0.146-0.611-0.304c-0.274-0.751-0.842-0.928-1.541-0.925c-0.463,0.002-0.926,0-1.339,0
			c0-0.832,0-1.555,0-2.223c0.603-0.1,1.143-0.19,1.711-0.284c0.071,0.184,0.148,0.374,0.218,0.566
			c0.631,1.764,0.63,1.764,2.532,1.764c4.135,0,8.27,0.002,12.404-0.001c1.44,0,1.774-0.335,1.777-1.769c0.002-1.275,0-2.55,0-4.063
			c1.412,1.78,2.622,3.377,3.921,4.897c0.364,0.426,0.986,0.886,1.497,0.894c4.223,0.071,8.446,0.043,12.67,0.038
			c0.696-0.001,1.156-0.314,1.376-1.013C136.797,29.937,137.139,29.061,137.469,28.135z"/>
		<path fill-rule="evenodd" clip-rule="evenodd" d="M137.469,28.135c-0.33,0.926-0.672,1.802-0.953,2.698
			c-0.22,0.699-0.68,1.012-1.376,1.013c-4.224,0.005-8.447,0.033-12.67-0.038c-0.511-0.008-1.133-0.468-1.497-0.894
			c-1.299-1.52-2.509-3.117-3.921-4.897c0,1.513,0.002,2.789,0,4.063c-0.003,1.434-0.337,1.769-1.777,1.769
			c-4.135,0.003-8.27,0.001-12.404,0.001c-1.902,0-1.901,0-2.532-1.764c-0.069-0.193-0.146-0.382-0.218-0.566
			c-0.568,0.094-1.108,0.184-1.711,0.284c0,0.668,0,1.391,0,2.223c0.413,0,0.876,0.002,1.339,0c0.699-0.003,1.267,0.174,1.541,0.925
			c0.058,0.158,0.395,0.29,0.611,0.304c1.666,0.103,1.861,0.295,1.861,1.963c0,3.131,0,6.261,0,9.392c0,0.319,0,0.638,0,1.008
			c2.549,0,5.015,0,7.349,0c0.08-1.595,0.015-3.192,0.27-4.737c0.571-3.446,2.619-5.751,5.929-6.849
			c3.266-1.083,6.563-1.062,9.83,0.029c2.309,0.771,4.073,2.218,5.221,4.513c0.362-0.517,0.665-0.998,1.018-1.439
			c1.803-2.255,4.251-3.441,7.034-3.652c3.261-0.246,6.546-0.165,9.821-0.205c1.888-0.024,3.775-0.014,5.663-0.007
			c1.326,0.005,1.69,0.367,1.692,1.682c0.005,2.798,0.002,5.596,0.139,8.425c0.098-0.258,0.207-0.512,0.293-0.773
			c0.888-2.688,1.791-5.372,2.645-8.071c0.283-0.896,0.789-1.289,1.738-1.275c2.54,0.034,5.08,0.031,7.62,0.001
			c0.906-0.011,1.417,0.365,1.698,1.218c1.85,5.603,3.724,11.198,5.579,16.8c0.366,1.104-0.024,1.654-1.181,1.664
			c-2.008,0.016-4.017-0.012-6.024,0.012c-0.767,0.01-1.203-0.313-1.43-1.039c-0.218-0.699-0.322-1.676-0.817-1.985
			c-0.581-0.364-1.54-0.072-2.316-0.189c-1.056-0.159-1.573,0.263-1.744,1.271c-0.053,0.314-0.217,0.609-0.314,0.919
			c-0.213,0.677-0.66,1.018-1.377,1.017c-6.792-0.009-13.587,0.104-20.375-0.068c-3.828-0.097-7.136-1.563-9.063-5.023
			c-0.815,0.989-1.51,2.143-2.486,2.958c-2.814,2.349-6.213,2.697-9.704,2.393c-2.668-0.232-5.125-1.064-7.195-3.254
			c0,0.674,0.018,1.13-0.004,1.584c-0.048,0.987-0.456,1.404-1.428,1.406c-4.813,0.009-9.628,0.009-14.441,0
			c-1.038-0.002-1.435-0.413-1.455-1.463c-0.017-0.854-0.003-1.71-0.003-2.842c-2.262,3.465-5.549,4.491-9.196,4.635
			c-3.611,0.142-6.999-0.53-9.792-3.488c0,0.73,0.023,1.271-0.005,1.811c-0.048,0.928-0.467,1.338-1.395,1.348
			c-1.683,0.016-3.37,0.057-5.048-0.029c-0.482-0.024-1.064-0.343-1.393-0.712c-1.027-1.151-1.954-2.392-3.094-3.529
			c0,0.962,0.017,1.925-0.004,2.887c-0.023,1.066-0.335,1.384-1.385,1.385c-4.782,0.004-9.566,0.05-14.348-0.027
			c-2.864-0.047-5.503-0.906-7.847-2.94c0,0.596,0.003,1.024-0.001,1.453c-0.013,1.23-0.29,1.516-1.513,1.517
			c-4.814,0.004-9.628,0.002-14.442,0.002c-0.354,0-0.709,0.003-1.063-0.001c-1.208-0.013-1.59-0.383-1.593-1.595
			c-0.007-3.249-0.002-6.497-0.002-9.746c0-0.319,0-0.638,0-1.01c-1.381,0-2.691,0-4.1,0c0,0.347,0,0.663,0,0.979
			c0,3.219,0.003,6.438-0.001,9.657c-0.002,1.316-0.374,1.697-1.676,1.707c-1.536,0.011-3.072,0.013-4.607-0.001
			c-1.135-0.011-1.54-0.418-1.543-1.562c-0.009-3.248-0.003-6.497-0.003-9.746c0-0.32,0-0.641,0-1.087
			c-1.354,0-2.64,0.003-3.926-0.001c-1.256-0.004-1.637-0.375-1.648-1.632c-0.012-1.3-0.007-2.6-0.001-3.898
			c0.006-1.351,0.386-1.742,1.745-1.737c5.491,0.018,10.982,0.063,16.474,0.065c4.812,0.001,9.624-0.047,14.436-0.067
			c1.71-0.007,2.008,0.298,2.009,2.004c0,0.795,0,1.59,0,2.409c0.862-0.803,1.619-1.662,2.522-2.317
			c2.052-1.486,4.442-2.053,6.931-2.081c4.662-0.053,9.324-0.011,13.986-0.021c0.768-0.002,1.324,0.256,1.795,0.901
			c0.864,1.186,1.818,2.305,2.898,3.656c0-1.132-0.007-2.029,0.002-2.927c0.012-1.206,0.4-1.614,1.577-1.622
			c1.912-0.013,3.823-0.003,5.795-0.003c0-1.023,0-2.149,0-3.542c-0.311,0.585-0.437,1.029-0.723,1.309
			c-0.35,0.342-0.827,0.739-1.261,0.754c-0.388,0.014-0.952-0.369-1.163-0.735c-0.747-1.298-1.375-2.664-2.26-3.989
			c0,0.943,0.001,1.886,0,2.828c-0.002,1.648-0.312,1.958-1.971,1.958c-8.063,0.001-16.125,0-24.188,0
			c-1.96,0-2.143-0.178-2.154-2.097c-0.001-0.176,0-0.353,0-0.704c-0.37,0.419-0.615,0.764-0.924,1.036
			c-1.29,1.137-2.822,1.731-4.525,1.752c-3.337,0.042-6.675,0.015-10.012,0.012c-1.388-0.001-1.712-0.331-1.714-1.733
			c-0.003-1.684-0.008-3.367,0.002-5.05c0.007-1.162,0.382-1.534,1.548-1.542c1.476-0.01,2.951-0.002,4.427-0.002
			c0.069-0.078,0.138-0.156,0.207-0.234c-0.457-0.383-0.945-0.735-1.365-1.155c-1.538-1.54-2.81-3.249-3.456-5.375
			c-0.497-1.636-0.354-3.219,0.291-4.758c0.954-2.278,2.849-3.146,5.169-3.173c3.839-0.045,7.679-0.013,11.518-0.013
			c5.493,0,10.987-0.029,16.48,0.012c2.951,0.022,5.9-0.034,8.851-0.028c0.967,0.002,1.589,0.296,2.025,1.206
			c0.842,1.754,1.787,3.46,2.692,5.184c0.175,0.333,0.369,0.657,0.593,1.055c1.124-2.156,2.224-4.21,3.266-6.294
			C78.243,9.13,78.808,8.78,79.723,8.8c1.86,0.042,3.721,0.007,5.582,0.015c1.255,0.005,1.631,0.384,1.632,1.648
			c0.005,3.887,0.002,7.774,0.137,11.694c0.118-0.319,0.245-0.635,0.351-0.958c1.226-3.726,2.469-7.446,3.657-11.185
			c0.282-0.889,0.789-1.216,1.682-1.21c3.101,0.022,6.202,0.021,9.303,0c0.924-0.006,1.447,0.336,1.744,1.259
			c1.238,3.847,2.54,7.674,3.821,11.507c0.116,0.35,0.256,0.691,0.518,1.003c0-2.559,0-5.118,0-7.676
			c0-1.565-0.012-3.131,0.005-4.696c0.011-0.906,0.405-1.366,1.263-1.377c2.126-0.029,4.254-0.047,6.378,0.023
			c0.428,0.014,0.952,0.343,1.243,0.686c1.332,1.572,2.597,3.202,4.089,4.787c0-1.036,0-2.072,0-3.108c0-2.251,0.149-2.4,2.412-2.4
			c1.565,0,3.13-0.002,4.695,0.001c1.489,0.003,1.847,0.352,1.849,1.813c0.003,2.895,0.001,5.789,0.001,8.683
			c0,0.277,0,0.553,0,0.83c0.067,0.01,0.134,0.02,0.201,0.03c0.531-1.607,1.065-3.215,1.595-4.823
			c0.599-1.822,1.214-3.639,1.781-5.47c0.229-0.736,0.68-1.064,1.424-1.064c3.248,0.002,6.497-0.001,9.746,0.003
			c0.727,0.001,1.192,0.314,1.437,1.053c2.232,6.751,4.49,13.493,6.735,20.24c0.346,1.04-0.083,1.711-1.174,1.727
			c-2.422,0.035-4.844,0.017-7.266,0.01c-0.766-0.002-1.249-0.359-1.492-1.124c-0.274-0.865-0.418-2.029-1.036-2.454
			c-0.627-0.432-1.765-0.123-2.68-0.132C138.737,28.13,138.119,28.135,137.469,28.135z M41.286,46.654
			c-2.799,0.026-5.597,0.055-8.396,0.079c-0.729,0.007-1.459,0.001-2.209,0.001c0-0.752,0-1.408,0-2.15c2.008,0,3.943,0,5.86,0
			c0-1.041,0-1.993,0-3.03c-2.005,0-3.936,0-5.875,0c0-0.724,0-1.358,0-2.102c3.106,0,6.154,0,9.209,0c0-1.75,0-3.39,0-5.061
			c-5.012,0-9.977,0-14.93,0c0,5.858,0,11.654,0,17.428c5.509,0,10.952,0,16.334,0c0-1.771,0-3.474,0.001-5.175
			c0.096,0.107,0.219,0.201,0.284,0.324c1.514,2.889,4.008,4.417,7.145,4.717c2.664,0.254,5.362,0.151,8.045,0.201
			c0.61,0.011,1.221,0.001,1.854,0.001c0-1.773,0-3.438,0-5.153c-1.657,0-3.25,0.046-4.84-0.013
			c-1.499-0.056-3.001-0.167-4.489-0.354c-0.927-0.117-1.669-0.662-1.955-1.595c-0.727-2.372-0.225-4.977,3.182-5.144
			c2.386-0.116,4.778-0.101,7.168-0.146c0.312-0.006,0.623-0.027,0.952-0.043c0-1.732,0-3.373,0-5.109
			c-0.775,0-1.505-0.013-2.234,0.003c-2.682,0.058-5.392-0.095-8.041,0.234c-5.138,0.639-7.963,4.317-7.519,9.442
			C40.907,44.897,41.13,45.773,41.286,46.654z M26.692,30.774c3.778,0,7.498,0.114,11.206-0.036
			c3.066-0.124,4.872-2.622,4.399-5.646c-0.299-1.912-1.238-3.492-2.487-4.901c-0.742-0.837-1.607-1.564-2.369-2.386
			c-0.3-0.324-0.47-0.77-0.699-1.161c0.438-0.183,0.867-0.497,1.313-0.522c1.266-0.073,2.538-0.028,3.807-0.029
			c0.634,0,1.267,0,1.983,0c0,4.979,0,9.806,0,14.646c8.753,0,17.421,0,26.212,0c0-2.723,0-5.403,0-8.083
			c0.289,0.243,0.426,0.499,0.556,0.757c1.154,2.292,2.304,4.587,3.468,6.874c0.096,0.189,0.293,0.327,0.444,0.488
			c0.157-0.152,0.338-0.286,0.463-0.461c0.112-0.156,0.161-0.358,0.258-0.59c-0.868-0.313-1.009-0.964-0.971-1.731
			c0.031-0.619,0.004-1.24,0.006-1.86c0.006-1.379,0.355-1.813,1.73-1.699c1.388,0.114,2.408-0.148,2.768-1.652
			c0.023-0.096,0.119-0.175,0.317-0.454c0,0.817,0,1.415,0,2.115c2.289,0,4.489,0,6.751,0c0-4.777,0-9.628,0-14.563
			c-2.19,0-4.339-0.015-6.487,0.024c-0.202,0.004-0.464,0.312-0.586,0.539c-0.987,1.846-1.947,3.708-2.917,5.563
			c-0.413,0.789-0.833,1.575-1.299,2.456c-0.226-0.403-0.39-0.679-0.539-0.963c-1.22-2.324-2.449-4.644-3.646-6.979
			c-0.246-0.48-0.53-0.675-1.086-0.657c-1.357,0.045-2.716,0.015-4.075,0.015c-0.665,0-1.331,0-2.066,0c0,4.964,0,9.794,0,14.66
			c-4.19,0-8.307,0-12.443,0c0-0.764,0-1.479,0-2.278c2.394,0,4.714,0,7.037,0c0-1.276,0-2.466,0-3.731c-2.389,0-4.709,0-7.062,0
			c0-0.831,0-1.584,0-2.442c3.692,0,7.333,0,10.982,0c0-2.123,0-4.141,0-6.208c-0.355,0-0.646,0-0.939,0
			c-9.331,0-18.662-0.001-27.993,0c-3.65,0.001-5.75,2.688-4.874,6.259c0.643,2.62,2.415,4.477,4.297,6.253
			c0.321,0.303,0.664,0.592,0.939,0.934c0.422,0.524,0.311,0.955-0.375,1.089c-0.546,0.107-1.11,0.156-1.668,0.165
			c-1.438,0.022-2.877,0.008-4.359,0.008C26.692,26.665,26.692,28.661,26.692,30.774z M116.018,23.375
			c0.068-0.022,0.137-0.044,0.206-0.066c1.266,1.588,2.527,3.18,3.799,4.764c0.72,0.896,1.291,2.121,2.229,2.574
			c0.938,0.452,2.252,0.136,3.401,0.138c3.245,0.006,6.491,0.002,9.762,0.002c0.453-1.254,0.892-2.468,1.34-3.707
			c1.903,0,3.763-0.021,5.62,0.026c0.244,0.006,0.594,0.315,0.697,0.566c0.415,1.004,0.753,2.04,1.115,3.056
			c2.646,0,5.253,0,7.858,0c0-0.116,0.016-0.178-0.002-0.23c-2.227-6.681-4.462-13.358-6.67-20.045
			c-0.169-0.512-0.44-0.585-0.901-0.583c-2.982,0.016-5.966,0.029-8.947-0.009c-0.624-0.008-0.853,0.202-1.036,0.772
			c-1.426,4.432-2.889,8.853-4.342,13.277c-0.307,0.934-0.624,1.865-0.936,2.798c-0.068-0.011-0.136-0.022-0.204-0.033
			c0-5.585,0-11.17,0-16.723c-2.338,0-4.564,0-6.863,0c0,2.506,0,4.938,0,7.552c-0.323-0.378-0.534-0.61-0.729-0.854
			c-1.655-2.078-3.305-4.162-4.969-6.232c-0.173-0.214-0.43-0.507-0.651-0.511c-2.175-0.038-4.351-0.023-6.621-0.023
			c0,6.411,0,12.723,0,19.036c-0.056,0.008-0.112,0.016-0.168,0.023c-2.124-6.355-4.248-12.71-6.363-19.038
			c-3.532,0-6.954,0-10.43,0c-1.58,4.816-3.157,9.624-4.757,14.504c0.339,0,0.572,0,0.805,0c3.514,0,7.028-0.004,10.542,0.002
			c1.109,0.002,1.434,0.388,1.596,1.341c0.286,1.689,0.698,3.358,1.048,4.984c5.009,0,9.751,0,14.571,0
			C116.018,28.248,116.018,25.812,116.018,23.375z M163.515,48.698c0.854,0,1.679-0.008,2.504,0.003
			c0.853,0.01,1.913-0.262,2.497,0.145c0.577,0.401,0.671,1.496,0.976,2.287c0.053,0.138,0.069,0.303,0.158,0.409
			c0.115,0.139,0.285,0.326,0.433,0.328c2.08,0.021,4.16,0.014,6.318,0.014c-0.081-0.262-0.12-0.399-0.165-0.535
			c-1.815-5.451-3.639-10.9-5.435-16.358c-0.168-0.512-0.398-0.679-0.933-0.673c-2.391,0.029-4.783,0.044-7.174-0.006
			c-0.692-0.015-0.963,0.229-1.164,0.854c-1.52,4.712-3.072,9.414-4.616,14.118c-0.071,0.217-0.168,0.425-0.252,0.638
			c-0.056-0.017-0.111-0.033-0.167-0.05c0-5.155,0-10.312,0-15.496c-1.914,0-3.76,0-5.646,0c0,5.84,0,11.636,0,17.435
			c0.14,0.033,0.224,0.069,0.307,0.07c3.572,0.004,7.146,0.017,10.718-0.018c0.241-0.003,0.591-0.313,0.697-0.563
			C162.928,50.466,163.198,49.594,163.515,48.698z M65.032,51.856c0-2.116,0-4.146,0-6.412c1.663,2.095,3.157,3.991,4.671,5.871
			c0.188,0.232,0.477,0.538,0.725,0.544c1.791,0.047,3.584,0.025,5.466,0.025c0-5.88,0-11.674,0-17.495c-1.957,0-3.823,0-5.802,0
			c0,2.067,0,4.076,0,6.292c-0.336-0.394-0.528-0.605-0.705-0.828c-1.323-1.662-2.637-3.331-3.969-4.986
			c-0.172-0.213-0.428-0.503-0.651-0.509c-1.816-0.041-3.635-0.022-5.447-0.022c0,5.908,0,11.704,0,17.521
			C61.204,51.856,63.025,51.856,65.032,51.856z M121.915,52.317c1.184-0.112,2.098-0.158,2.999-0.291
			c3.729-0.551,6.334-2.747,7.061-6.134c0.274-1.277,0.351-2.649,0.223-3.95c-0.331-3.383-2.119-5.73-5.365-6.907
			c-2.016-0.73-4.102-0.817-6.198-0.664c-5.197,0.378-8.205,3.392-8.466,8.412c-0.242,4.679,1.998,7.959,6.252,9.017
			C119.64,52.103,120.916,52.175,121.915,52.317z M150.417,34.331c-2.732,0-5.386-0.035-8.037,0.017
			c-1.054,0.021-2.124,0.14-3.149,0.378c-4.101,0.953-6.532,3.833-6.689,7.82c-0.166,4.215,2.003,7.447,5.961,8.696
			c1.137,0.358,2.361,0.563,3.553,0.601c2.765,0.086,5.533,0.027,8.35,0.027c0-2.97,0-5.872,0-8.849
			c-1.646,0-3.234-0.002-4.822,0.002c-0.198,0-0.396,0.03-0.704,0.056c0,1.17,0,2.301,0,3.639c-1.47-0.188-2.839-0.228-4.119-0.585
			c-0.636-0.178-1.381-0.84-1.606-1.455c-0.813-2.214-0.316-4.845,3.022-5.037c2.354-0.136,4.717-0.111,7.075-0.155
			c0.374-0.008,0.748-0.002,1.167-0.002C150.417,37.738,150.417,36.099,150.417,34.331z M88.845,35.735
			c-1.506,1.249-3.188,1.644-5.015,1.613c-1.681-0.027-3.364,0.039-5.042-0.026c-0.734-0.028-1.136,0.25-1.473,0.844
			c-1.623,2.86-1.663,5.846-0.665,8.881c0.565,1.721,1.703,3.078,3.336,3.848c4.048,1.908,8.183,1.966,12.182-0.056
			c4.885-2.471,4.697-9.617,2.61-12.719c-0.389-0.578-0.8-0.848-1.508-0.792c-0.821,0.064-1.651,0.017-2.477,0.015
			C89.415,37.34,89.158,37.138,88.845,35.735z M87.64,26.452c-1.363-0.874-2.751-1.021-4.191-0.99
			c-1.624,0.035-3.249,0.008-4.873,0.008c-1.056,0-2.111,0-3.196,0c0,1.104,0,2.114,0,3.223c0.754,0,1.446,0,2.213,0
			c0,2.569,0,5.041,0,7.529c2.641,0,5.212,0.131,7.763-0.04c2.241-0.149,3.605-1.507,3.999-3.731
			c0.214-1.214,0.142-2.48,0.199-3.723c0.216,0.093,0.392,0.298,0.398,0.51c0.031,0.974,0.015,1.948,0.015,2.923
			c0,1.351,0,2.7,0,4.061c3.491,0,6.869,0,10.249,0c0-1.07,0-2.08,0-3.173c-2.25,0-4.422,0-6.591,0c0-0.43,0-0.772,0-1.217
			c1.239,0,2.433,0,3.648,0c0-0.68,0-1.256,0-1.933c-1.236,0-2.432,0-3.628,0c0-0.463,0-0.825,0-1.262c1.916,0,3.764,0,5.621,0
			c0-1.091,0-2.104,0-3.13c-3.866,0-7.666,0-11.485,0C87.737,25.795,87.7,26.048,87.64,26.452z M24.161,34.378
			c-5.636,0-11.173,0-16.745,0c0,1.71,0,3.373,0,5.132c1.845,0,3.632,0,5.504,0c0,4.159,0,8.225,0,12.296c1.958,0,3.826,0,5.774,0
			c0-4.128,0-8.188,0-12.342c1.864,0,3.649,0,5.466,0C24.161,37.728,24.161,36.085,24.161,34.378z M102.702,46.757
			c0-4.215,0-8.296,0-12.374c-0.51,0-0.908,0-1.392,0c0,0.458,0.003,0.865-0.001,1.272c-0.011,1.311-0.376,1.678-1.687,1.687
			c-0.848,0.006-1.694,0.001-2.572,0.001c0,4.884,0,9.675,0,14.475c5.072,0,10.094,0,15.123,0c0-1.71,0-3.351,0-5.061
			C109.042,46.757,105.955,46.757,102.702,46.757z M58.153,40.695c-2.724,0-5.343-0.075-7.956,0.029
			c-1.542,0.062-2.117,0.88-2.109,2.479c0.007,1.535,0.498,2.188,2.072,2.279c2.465,0.143,4.939,0.135,7.41,0.184
			c0.194,0.004,0.389-0.043,0.583-0.066C58.153,43.908,58.153,42.271,58.153,40.695z M143.865,45.545
			c0-0.667-0.002-1.192,0.001-1.718c0.008-1.52,0.353-1.861,1.886-1.864c1.317-0.003,2.634-0.001,3.964-0.001c0-0.53,0-0.93,0-1.379
			c-0.241-0.017-0.441-0.046-0.641-0.042c-2.329,0.045-4.663,0.026-6.987,0.164c-1.615,0.097-2.185,0.798-2.211,2.301
			c-0.028,1.576,0.432,2.119,2.082,2.381C142.535,45.478,143.124,45.486,143.865,45.545z M51.64,17.428
			c0.327,0.026,0.594,0.064,0.862,0.065c1.563,0.005,3.127-0.006,4.691,0.006c1.254,0.01,1.65,0.406,1.665,1.637
			c0.01,0.826,0.006,1.652,0.001,2.479c-0.009,1.376-0.363,1.733-1.721,1.735c-1.756,0.002-3.511,0-5.267,0
			c0,0.035,0.001,0.069,0.002,0.104c3.402,0,6.804,0,10.174,0c0-2.147,0-4.227,0-6.259c-3.46,0-6.85,0-10.239,0.005
			C51.778,17.2,51.748,17.277,51.64,17.428z M37.254,45.633c0.95,0,1.825,0,2.594,0c0-1.697,0-3.356,0-5.042
			c-0.879,0-1.795,0-2.748,0C37.813,41.582,37.893,44.424,37.254,45.633z M42.704,22.259c0-1.567,0-3.306,0-5.05
			c-1.445,0-2.833,0-4.082,0C39.991,18.903,41.383,20.625,42.704,22.259z"/>
		<path fill-rule="evenodd" clip-rule="evenodd" fill="#FFFFFF" d="M26.692,30.774c0-2.113,0-4.109,0-6.19
			c1.482,0,2.921,0.015,4.359-0.008c0.558-0.008,1.122-0.058,1.668-0.165c0.686-0.135,0.797-0.565,0.375-1.089
			c-0.275-0.342-0.618-0.63-0.939-0.934c-1.882-1.776-3.655-3.633-4.297-6.253c-0.876-3.572,1.224-6.258,4.874-6.259
			c9.331-0.002,18.662,0,27.993,0c0.292,0,0.584,0,0.939,0c0,2.068,0,4.085,0,6.208c-3.649,0-7.29,0-10.982,0
			c0,0.857,0,1.611,0,2.442c2.353,0,4.672,0,7.062,0c0,1.265,0,2.456,0,3.731c-2.323,0-4.643,0-7.037,0c0,0.798,0,1.514,0,2.278
			c4.136,0,8.253,0,12.443,0c0-4.866,0-9.696,0-14.66c0.735,0,1.401,0,2.066,0c1.359,0,2.718,0.03,4.075-0.015
			c0.556-0.019,0.84,0.177,1.086,0.657c1.197,2.336,2.426,4.656,3.646,6.979c0.149,0.284,0.313,0.561,0.539,0.963
			c0.466-0.881,0.887-1.667,1.299-2.456c0.971-1.855,1.93-3.717,2.917-5.563c0.122-0.227,0.384-0.535,0.586-0.539
			c2.148-0.039,4.297-0.024,6.487-0.024c0,4.936,0,9.786,0,14.563c-2.263,0-4.462,0-6.751,0c0-0.7,0-1.297,0-2.115
			c-0.199,0.278-0.294,0.357-0.317,0.454c-0.36,1.504-1.38,1.766-2.768,1.652c-1.375-0.113-1.724,0.32-1.73,1.699
			c-0.002,0.62,0.024,1.241-0.006,1.86c-0.039,0.767,0.103,1.418,0.971,1.731c-0.098,0.232-0.146,0.434-0.258,0.59
			c-0.125,0.175-0.306,0.31-0.463,0.461c-0.15-0.161-0.348-0.299-0.444-0.488c-1.165-2.287-2.314-4.582-3.468-6.874
			c-0.13-0.258-0.267-0.514-0.556-0.757c0,2.68,0,5.359,0,8.083c-8.791,0-17.458,0-26.212,0c0-4.84,0-9.667,0-14.646
			c-0.716,0-1.35,0-1.983,0c-1.27,0.001-2.542-0.044-3.807,0.029c-0.446,0.025-0.876,0.34-1.313,0.522
			c0.229,0.391,0.398,0.836,0.699,1.161c0.762,0.821,1.627,1.548,2.369,2.386c1.249,1.409,2.188,2.99,2.487,4.901
			c0.473,3.024-1.333,5.522-4.399,5.646C34.189,30.889,30.47,30.774,26.692,30.774z"/>
		<path fill-rule="evenodd" clip-rule="evenodd" fill="#FFFFFF" d="M116.018,23.375c0,2.437,0,4.873,0,7.359
			c-4.82,0-9.563,0-14.571,0c-0.35-1.625-0.762-3.294-1.048-4.984c-0.162-0.953-0.486-1.339-1.596-1.341
			c-3.514-0.007-7.028-0.002-10.542-0.002c-0.233,0-0.466,0-0.805,0c1.601-4.88,3.178-9.688,4.757-14.504c3.476,0,6.897,0,10.43,0
			c2.115,6.328,4.239,12.683,6.363,19.038c0.056-0.008,0.112-0.016,0.168-0.023c0-6.313,0-12.625,0-19.036
			c2.271,0,4.446-0.015,6.621,0.023c0.222,0.004,0.479,0.297,0.651,0.511c1.664,2.071,3.313,4.155,4.969,6.232
			c0.195,0.245,0.406,0.477,0.729,0.854c0-2.614,0-5.046,0-7.552c2.299,0,4.525,0,6.863,0c0,5.553,0,11.138,0,16.723
			c0.068,0.011,0.136,0.021,0.204,0.033c0.312-0.933,0.629-1.864,0.936-2.798c1.453-4.424,2.916-8.845,4.342-13.277
			c0.184-0.57,0.412-0.78,1.036-0.772c2.981,0.038,5.965,0.025,8.947,0.009c0.461-0.002,0.732,0.071,0.901,0.583
			c2.208,6.687,4.443,13.365,6.67,20.045c0.018,0.052,0.002,0.115,0.002,0.23c-2.605,0-5.212,0-7.858,0
			c-0.362-1.016-0.7-2.052-1.115-3.056c-0.104-0.25-0.453-0.56-0.697-0.566c-1.857-0.047-3.717-0.026-5.62-0.026
			c-0.448,1.239-0.887,2.453-1.34,3.707c-3.271,0-6.517,0.003-9.762-0.002c-1.149-0.002-2.463,0.313-3.401-0.138
			c-0.938-0.453-1.51-1.677-2.229-2.574c-1.271-1.583-2.533-3.175-3.799-4.764C116.154,23.331,116.086,23.353,116.018,23.375z
			 M97.45,14.633c-1.026,2.839-1.974,5.46-2.936,8.122c1.909,0,3.737,0,5.647,0C99.264,20.063,98.39,17.447,97.45,14.633z
			 M139.979,14.63c-1.022,2.831-1.976,5.471-2.939,8.143c1.927,0,3.744,0,5.654,0C141.801,20.093,140.929,17.477,139.979,14.63z"/>
		<path fill-rule="evenodd" clip-rule="evenodd" fill="#FFFFFF" d="M163.515,48.698c-0.316,0.896-0.587,1.768-0.944,2.603
			c-0.106,0.25-0.456,0.56-0.697,0.563c-3.572,0.034-7.146,0.021-10.718,0.018c-0.083-0.001-0.167-0.037-0.307-0.07
			c0-5.799,0-11.595,0-17.435c1.887,0,3.732,0,5.646,0c0,5.185,0,10.341,0,15.496c0.056,0.017,0.111,0.033,0.167,0.05
			c0.084-0.213,0.181-0.421,0.252-0.638c1.544-4.704,3.097-9.406,4.616-14.118c0.201-0.625,0.472-0.869,1.164-0.854
			c2.391,0.05,4.783,0.035,7.174,0.006c0.534-0.006,0.765,0.161,0.933,0.673c1.796,5.458,3.619,10.907,5.435,16.358
			c0.045,0.136,0.084,0.273,0.165,0.535c-2.158,0-4.238,0.007-6.318-0.014c-0.147-0.002-0.317-0.189-0.433-0.328
			c-0.089-0.106-0.105-0.271-0.158-0.409c-0.305-0.791-0.398-1.886-0.976-2.287c-0.584-0.406-1.645-0.135-2.497-0.145
			C165.193,48.69,164.369,48.698,163.515,48.698z M168.484,45.11c-0.749-2.25-1.479-4.438-2.268-6.806
			c-0.465,1.279-0.864,2.376-1.261,3.474c-0.395,1.093-0.784,2.188-1.194,3.332C165.375,45.11,166.871,45.11,168.484,45.11z"/>
		<path fill-rule="evenodd" clip-rule="evenodd" fill="#FFFFFF" d="M65.032,51.856c-2.007,0-3.828,0-5.712,0
			c0-5.816,0-11.612,0-17.521c1.812,0,3.63-0.019,5.447,0.022c0.223,0.006,0.479,0.296,0.651,0.509
			c1.333,1.655,2.646,3.324,3.969,4.986c0.177,0.223,0.369,0.435,0.705,0.828c0-2.216,0-4.225,0-6.292c1.979,0,3.846,0,5.802,0
			c0,5.821,0,11.615,0,17.495c-1.882,0-3.675,0.021-5.466-0.025c-0.249-0.006-0.537-0.312-0.725-0.544
			c-1.514-1.88-3.008-3.776-4.671-5.871C65.032,47.71,65.032,49.74,65.032,51.856z"/>
		<path fill-rule="evenodd" clip-rule="evenodd" fill="#FFFFFF" d="M121.915,52.317c-0.999-0.143-2.275-0.215-3.495-0.518
			c-4.254-1.058-6.494-4.338-6.252-9.017c0.261-5.021,3.269-8.034,8.466-8.412c2.097-0.153,4.183-0.066,6.198,0.664
			c3.246,1.177,5.034,3.524,5.365,6.907c0.128,1.301,0.052,2.673-0.223,3.95c-0.727,3.387-3.332,5.583-7.061,6.134
			C124.013,52.159,123.099,52.205,121.915,52.317z M122.149,47.429c1.802,0.008,3.14-0.694,3.534-1.953
			c0.49-1.562,0.479-3.12-0.212-4.647c-0.369-0.818-0.971-1.375-1.83-1.499c-0.83-0.12-1.698-0.146-2.532-0.056
			c-1.266,0.139-2.146,0.931-2.403,2.146c-0.209,0.984-0.288,2.057-0.134,3.044C118.911,46.627,119.966,47.418,122.149,47.429z"/>
		<path fill-rule="evenodd" clip-rule="evenodd" fill="#FFFFFF" d="M150.417,34.331c0,1.768,0,3.407,0,5.152
			c-0.419,0-0.793-0.006-1.167,0.002c-2.358,0.044-4.722,0.02-7.075,0.155c-3.339,0.192-3.836,2.823-3.022,5.037
			c0.226,0.615,0.971,1.277,1.606,1.455c1.28,0.357,2.649,0.396,4.119,0.585c0-1.338,0-2.469,0-3.639
			c0.308-0.025,0.506-0.056,0.704-0.056c1.588-0.004,3.176-0.002,4.822-0.002c0,2.977,0,5.879,0,8.849
			c-2.816,0-5.585,0.059-8.35-0.027c-1.191-0.037-2.416-0.242-3.553-0.601c-3.958-1.249-6.127-4.481-5.961-8.696
			c0.157-3.987,2.589-6.867,6.689-7.82c1.025-0.238,2.096-0.357,3.149-0.378C145.031,34.296,147.685,34.331,150.417,34.331z"/>
		<path fill-rule="evenodd" clip-rule="evenodd" fill="#FFFFFF" d="M41.279,46.644c0,1.702,0,3.404,0,5.176
			c-5.382,0-10.825,0-16.334,0c0-5.773,0-11.569,0-17.428c4.953,0,9.918,0,14.93,0c0,1.671,0,3.311,0,5.061
			c-3.055,0-6.103,0-9.209,0c0,0.743,0,1.378,0,2.102c1.939,0,3.87,0,5.875,0c0,1.037,0,1.989,0,3.03c-1.917,0-3.853,0-5.86,0
			c0,0.742,0,1.398,0,2.15c0.75,0,1.48,0.006,2.209-0.001c2.799-0.024,5.597-0.053,8.396-0.079L41.279,46.644z"/>
		<path fill-rule="evenodd" clip-rule="evenodd" fill="#FFFFFF" d="M88.845,35.735c0.313,1.402,0.57,1.604,1.948,1.607
			c0.826,0.002,1.655,0.05,2.477-0.015c0.708-0.056,1.119,0.214,1.508,0.792c2.087,3.102,2.274,10.248-2.61,12.719
			c-3.999,2.021-8.134,1.964-12.182,0.056c-1.633-0.77-2.771-2.127-3.336-3.848c-0.998-3.035-0.958-6.021,0.665-8.881
			c0.337-0.594,0.739-0.872,1.473-0.844c1.679,0.065,3.362-0.001,5.042,0.026C85.657,37.379,87.339,36.984,88.845,35.735z
			 M85.989,47.429c1.799,0.012,3.148-0.688,3.542-1.942c0.5-1.592,0.486-3.176-0.245-4.727c-0.371-0.787-0.964-1.307-1.783-1.428
			c-0.831-0.123-1.698-0.151-2.532-0.061c-1.307,0.143-2.181,0.971-2.441,2.222c-0.198,0.957-0.265,2-0.112,2.96
			C82.763,46.62,83.81,47.414,85.989,47.429z"/>
		<path fill-rule="evenodd" clip-rule="evenodd" fill="#FFFFFF" d="M41.286,46.654c-0.156-0.881-0.379-1.757-0.456-2.645
			c-0.444-5.125,2.381-8.804,7.519-9.442c2.649-0.329,5.359-0.177,8.041-0.234c0.729-0.016,1.459-0.003,2.234-0.003
			c0,1.736,0,3.377,0,5.109c-0.329,0.016-0.64,0.037-0.952,0.043c-2.39,0.046-4.782,0.03-7.168,0.146
			c-3.407,0.167-3.909,2.771-3.182,5.144c0.286,0.933,1.028,1.478,1.955,1.595c1.488,0.188,2.99,0.299,4.489,0.354
			c1.59,0.059,3.184,0.013,4.84,0.013c0,1.716,0,3.38,0,5.153c-0.633,0-1.244,0.01-1.854-0.001c-2.683-0.05-5.381,0.053-8.045-0.201
			c-3.137-0.3-5.631-1.828-7.145-4.717c-0.064-0.123-0.188-0.217-0.284-0.325C41.279,46.644,41.286,46.654,41.286,46.654z"/>
		<path fill-rule="evenodd" clip-rule="evenodd" fill="#FFFFFF" d="M87.64,26.452c0.06-0.404,0.098-0.657,0.141-0.944
			c3.819,0,7.619,0,11.485,0c0,1.026,0,2.039,0,3.13c-1.857,0-3.705,0-5.621,0c0,0.437,0,0.799,0,1.262c1.196,0,2.392,0,3.628,0
			c0,0.676,0,1.253,0,1.933c-1.216,0-2.409,0-3.648,0c0,0.444,0,0.787,0,1.217c2.169,0,4.341,0,6.591,0c0,1.093,0,2.103,0,3.173
			c-3.38,0-6.758,0-10.249,0c0-1.36,0-2.71,0-4.061c0-0.975,0.016-1.949-0.015-2.923c-0.006-0.211-0.182-0.417-0.398-0.51
			c-0.057,1.243,0.016,2.509-0.199,3.723c-0.394,2.225-1.758,3.582-3.999,3.731c-2.551,0.171-5.122,0.04-7.763,0.04
			c0-2.488,0-4.96,0-7.529c-0.767,0-1.459,0-2.213,0c0-1.109,0-2.119,0-3.223c1.084,0,2.14,0,3.196,0
			c1.624,0,3.249,0.027,4.873-0.008C84.889,25.432,86.276,25.578,87.64,26.452z M81.227,28.103c0,1.014,0,1.891,0,2.768
			c0,0.899,0,1.798,0,2.768c1.406-0.147,2.932,0.493,3.794-0.996c0.647-1.118,0.685-2.397,0.011-3.536
			C84.15,27.614,82.633,28.278,81.227,28.103z"/>
		<path fill-rule="evenodd" clip-rule="evenodd" fill="#FFFFFF" d="M24.161,34.378c0,1.707,0,3.35,0,5.086c-1.817,0-3.602,0-5.466,0
			c0,4.153,0,8.214,0,12.342c-1.948,0-3.817,0-5.774,0c0-4.071,0-8.137,0-12.296c-1.872,0-3.66,0-5.504,0c0-1.759,0-3.422,0-5.132
			C12.988,34.378,18.525,34.378,24.161,34.378z"/>
		<path fill-rule="evenodd" clip-rule="evenodd" fill="#FFFFFF" d="M102.702,46.757c3.253,0,6.34,0,9.472,0c0,1.71,0,3.351,0,5.061
			c-5.029,0-10.051,0-15.123,0c0-4.8,0-9.591,0-14.475c0.878,0,1.725,0.005,2.572-0.001c1.311-0.009,1.676-0.376,1.687-1.687
			c0.004-0.407,0.001-0.814,0.001-1.272c0.483,0,0.882,0,1.392,0C102.702,38.461,102.702,42.542,102.702,46.757z"/>
		<path fill-rule="evenodd" clip-rule="evenodd" fill="#FFFFFF" d="M58.153,40.695c0,1.575,0,3.213,0,4.905
			c-0.193,0.023-0.388,0.07-0.583,0.066c-2.471-0.049-4.945-0.041-7.41-0.184c-1.574-0.091-2.065-0.744-2.072-2.279
			c-0.008-1.6,0.567-2.418,2.109-2.479C52.81,40.62,55.429,40.695,58.153,40.695z"/>
		<path fill-rule="evenodd" clip-rule="evenodd" fill="#FFFFFF" d="M143.865,45.545c-0.741-0.059-1.33-0.067-1.906-0.158
			c-1.65-0.262-2.11-0.805-2.082-2.381c0.026-1.503,0.596-2.204,2.211-2.301c2.324-0.138,4.658-0.119,6.987-0.164
			c0.199-0.004,0.399,0.025,0.641,0.042c0,0.449,0,0.849,0,1.379c-1.33,0-2.646-0.002-3.964,0.001
			c-1.533,0.003-1.878,0.345-1.886,1.864C143.863,44.353,143.865,44.878,143.865,45.545z"/>
		<path fill-rule="evenodd" clip-rule="evenodd" fill="#FFFFFF" d="M51.64,17.428c0.108-0.151,0.138-0.229,0.167-0.229
			c3.389-0.005,6.779-0.005,10.239-0.005c0,2.033,0,4.112,0,6.259c-3.37,0-6.772,0-10.174,0c-0.001-0.035-0.001-0.069-0.002-0.104
			c1.756,0,3.511,0.002,5.267,0c1.358-0.002,1.712-0.359,1.721-1.735c0.005-0.826,0.009-1.653-0.001-2.479
			c-0.014-1.23-0.411-1.627-1.665-1.637c-1.563-0.012-3.127,0-4.691-0.006C52.234,17.492,51.967,17.454,51.64,17.428z"/>
		<path fill-rule="evenodd" clip-rule="evenodd" fill="#FFFFFF" d="M37.254,45.633c0.639-1.209,0.559-4.051-0.154-5.042
			c0.953,0,1.869,0,2.748,0c0,1.686,0,3.345,0,5.042C39.08,45.633,38.204,45.633,37.254,45.633z"/>
		<path fill-rule="evenodd" clip-rule="evenodd" fill="#FFFFFF" d="M42.704,22.259c-1.321-1.634-2.712-3.356-4.082-5.05
			c1.249,0,2.636,0,4.082,0C42.704,18.953,42.704,20.692,42.704,22.259z"/>
		<path fill-rule="evenodd" clip-rule="evenodd" d="M97.45,14.633c0.939,2.814,1.813,5.43,2.712,8.122c-1.91,0-3.738,0-5.647,0
			C95.477,20.094,96.424,17.473,97.45,14.633z M97.418,17.769c-0.514,1.421-0.957,2.649-1.425,3.942c0.94,0,1.782,0,2.733,0
			C98.302,20.432,97.894,19.201,97.418,17.769z"/>
		<path fill-rule="evenodd" clip-rule="evenodd" d="M139.979,14.63c0.949,2.847,1.821,5.463,2.715,8.143c-1.91,0-3.728,0-5.654,0
			C138.004,20.101,138.957,17.461,139.979,14.63z M141.266,21.725c-0.438-1.307-0.847-2.522-1.326-3.952
			c-0.52,1.447-0.958,2.668-1.419,3.952C139.471,21.725,140.288,21.725,141.266,21.725z"/>
		<path fill-rule="evenodd" clip-rule="evenodd" d="M168.484,45.11c-1.613,0-3.109,0-4.723,0c0.41-1.145,0.8-2.239,1.194-3.332
			c0.396-1.098,0.796-2.194,1.261-3.474C167.006,40.673,167.735,42.86,168.484,45.11z M166.173,41.449
			c-0.361,1.011-0.636,1.776-0.917,2.564c0.625,0,1.163,0,1.769,0C166.749,43.186,166.5,42.435,166.173,41.449z"/>
		<path fill-rule="evenodd" clip-rule="evenodd" d="M122.149,47.429c-2.184-0.011-3.238-0.802-3.577-2.965
			c-0.154-0.987-0.075-2.06,0.134-3.044c0.258-1.216,1.138-2.008,2.403-2.146c0.834-0.091,1.702-0.064,2.532,0.056
			c0.859,0.124,1.461,0.681,1.83,1.499c0.69,1.527,0.702,3.086,0.212,4.647C125.289,46.734,123.951,47.437,122.149,47.429z
			 M119.473,43.192c0.016,0.323-0.018,0.657,0.055,0.967c0.202,0.856,0.343,1.824,1.394,2.053c1.215,0.265,2.463,0.439,3.464-0.609
			c0.14-0.146,0.296-0.317,0.345-0.503c0.354-1.373,0.441-2.747-0.328-4.014c-0.194-0.319-0.581-0.641-0.936-0.726
			C121.196,39.815,119.38,40.384,119.473,43.192z"/>
		<path fill-rule="evenodd" clip-rule="evenodd" d="M85.989,47.429c-2.18-0.015-3.226-0.809-3.571-2.976
			c-0.153-0.96-0.086-2.003,0.112-2.96c0.26-1.251,1.134-2.079,2.441-2.222c0.833-0.091,1.701-0.063,2.532,0.061
			c0.819,0.121,1.413,0.641,1.783,1.428c0.731,1.551,0.744,3.135,0.245,4.727C89.137,46.741,87.789,47.44,85.989,47.429z
			 M83.32,43.188c0.02,0.353-0.015,0.718,0.07,1.055c0.214,0.854,0.391,1.83,1.462,1.985c0.798,0.116,1.651,0.128,2.438-0.026
			c1.069-0.209,1.573-1.174,1.535-2.838c-0.027-1.176-0.139-2.382-1.413-3.002c-0.026-0.013-0.057-0.017-0.085-0.023
			C85.056,39.838,83.231,40.373,83.32,43.188z"/>
		<path fill-rule="evenodd" clip-rule="evenodd" d="M81.227,28.103c1.407,0.175,2.923-0.488,3.805,1.004
			c0.673,1.139,0.636,2.418-0.011,3.536c-0.862,1.489-2.388,0.849-3.794,0.996c0-0.97,0-1.869,0-2.768
			C81.227,29.994,81.227,29.117,81.227,28.103z M82.306,30.716c0.696,0,1.38,0,2.064,0c-0.022-1.411-0.581-1.786-2.064-1.381
			C82.306,29.77,82.306,30.208,82.306,30.716z M82.135,31.885c0.222,0.309,0.347,0.64,0.483,0.645
			c0.582,0.02,1.299,0.24,1.568-0.645C83.544,31.885,82.961,31.885,82.135,31.885z"/>
		<path fill-rule="evenodd" clip-rule="evenodd" fill="#FFFFFF" d="M97.418,17.769c0.476,1.432,0.884,2.663,1.309,3.942
			c-0.951,0-1.793,0-2.733,0C96.461,20.418,96.904,19.19,97.418,17.769z"/>
		<path fill-rule="evenodd" clip-rule="evenodd" fill="#FFFFFF" d="M141.266,21.725c-0.978,0-1.795,0-2.745,0
			c0.461-1.284,0.899-2.505,1.419-3.952C140.419,19.203,140.827,20.418,141.266,21.725z"/>
		<path fill-rule="evenodd" clip-rule="evenodd" fill="#FFFFFF" d="M166.173,41.449c0.327,0.985,0.576,1.736,0.852,2.564
			c-0.605,0-1.144,0-1.769,0C165.537,43.226,165.812,42.46,166.173,41.449z"/>
		<path fill-rule="evenodd" clip-rule="evenodd" fill="#FFFFFF" d="M119.473,43.192c-0.093-2.809,1.724-3.377,3.993-2.832
			c0.354,0.085,0.741,0.406,0.936,0.726c0.77,1.267,0.683,2.641,0.328,4.014c-0.049,0.186-0.205,0.356-0.345,0.503
			c-1.001,1.049-2.249,0.874-3.464,0.609c-1.051-0.229-1.191-1.196-1.394-2.053C119.455,43.85,119.488,43.516,119.473,43.192z"/>
		<path fill-rule="evenodd" clip-rule="evenodd" fill="#FFFFFF" d="M83.32,43.188c-0.088-2.815,1.736-3.351,4.006-2.85
			c0.029,0.007,0.06,0.011,0.085,0.023c1.274,0.62,1.386,1.826,1.413,3.002c0.038,1.664-0.466,2.629-1.535,2.838
			c-0.787,0.154-1.64,0.143-2.438,0.026c-1.071-0.155-1.248-1.131-1.462-1.985C83.305,43.906,83.34,43.541,83.32,43.188z"/>
		<path fill-rule="evenodd" clip-rule="evenodd" fill="#FFFFFF" d="M82.306,30.716c0-0.508,0-0.947,0-1.381
			c1.484-0.404,2.042-0.029,2.064,1.381C83.686,30.716,83.001,30.716,82.306,30.716z"/>
		<path fill-rule="evenodd" clip-rule="evenodd" fill="#FFFFFF" d="M82.135,31.885c0.826,0,1.409,0,2.051,0
			c-0.269,0.885-0.986,0.664-1.568,0.645C82.482,32.524,82.357,32.193,82.135,31.885z"/>
	</g>
</g>
<g>
	<g>
		<g>
			<path fill="#FFFFFF" d="M31.708,9.708h29.833v6.208H50.375l0.016,2.458h7.266v3.734h-7.25l-0.01,2.287H63V9.708h6.833
				l4.542,8.583l4.542-8.583h6.833v14.688l-0.609-0.162l-6.234-0.016l-0.016-1.906l-0.172-0.031l-0.125,0.234l-0.875,1.672
				l-2.552,0.021c0,0-1.021,0.328-1.021,1.119s-0.042,3.167-0.042,3.167l0.833,1.035l0.188,0.104l-0.563,0.75l-0.125,0.208
				l-0.333-0.083l-0.292-0.688l-4.063-7.792l0.042,8.563H43.708V15.875L37.542,16c0,0-1.458,0.083-1,0.833s5.542,4.25,5.625,9.042
				s-5.083,4.766-5.417,4.716S26.5,30.601,26.5,30.601v-6.184l5.917-0.125c0,0,1.75-0.125,0.042-1.667s-4.917-4.5-4.958-7.792
				S29.667,9.708,31.708,9.708z"/>
			<path d="M74.676,31.166l-0.934-0.234l-0.39-0.917l-3.092-5.928l0.034,7.004H43.208V16.385L37.552,16.5
				c-0.181,0.011-0.41,0.063-0.543,0.117c0.134,0.16,0.416,0.423,0.67,0.66c1.596,1.487,4.918,4.58,4.988,8.59
				c0.026,1.479-0.41,2.685-1.293,3.584c-1.543,1.571-3.935,1.65-4.399,1.65c-0.152,0-0.255-0.009-0.298-0.015
				c-0.042-0.003-0.376-0.015-2.242-0.015c-3.025,0-7.931,0.029-7.931,0.029L26,31.104v-7.177l6.406-0.135
				c0.099-0.009,0.263-0.061,0.313-0.104c-0.021-0.008-0.084-0.23-0.596-0.692c-1.648-1.487-5.079-4.582-5.124-8.156
				c-0.021-1.702,0.537-3.216,1.572-4.264c0.858-0.869,2.001-1.367,3.137-1.367h30.333v7.208H50.878l0.009,1.458h7.269v4.734h-7.252
				l-0.005,1.287H62.5V9.208h7.634l4.24,8.015l4.241-8.015h7.634v15.837l-1.175-0.312l-6.665-0.017l-0.006-0.761l-0.381,0.729
				l-2.761,0.022c-0.164,0.069-0.616,0.291-0.616,0.62c0,0.661-0.029,2.423-0.039,2.994l0.76,0.874l0.501,0.278L74.676,31.166z
				 M34.434,30.071c2.219,0,2.322,0.015,2.39,0.025c0.022,0.002,0.076,0.004,0.15,0.004c0.241,0,2.395-0.038,3.686-1.351
				c0.689-0.701,1.028-1.665,1.007-2.866c-0.063-3.585-3.174-6.483-4.669-7.875c-0.507-0.473-0.757-0.709-0.882-0.914
				c-0.256-0.419-0.153-0.752-0.068-0.914c0.298-0.57,1.198-0.665,1.466-0.68l6.696-0.136v14.727h25.081L69.24,19.969l4.367,8.375
				c0.009-0.521,0.039-2.344,0.039-3.017c0-0.913,0.86-1.432,1.368-1.595l0.149-0.024l2.251-0.019l1.035-1.966l0.938,0.17
				l0.015,1.826l5.847,0.026V10.208h-6.032l-4.843,9.152l-4.843-9.152H63.5v14.688H49.894l0.015-3.287h7.248v-2.734h-7.262
				l-0.022-3.458h11.17v-5.208H31.708c-0.87,0-1.754,0.39-2.425,1.07c-0.599,0.606-1.307,1.713-1.284,3.549
				c0.04,3.137,3.25,6.034,4.793,7.427c0.279,0.251,1.126,1.016,0.864,1.779c-0.23,0.669-1.105,0.75-1.205,0.757L27,24.906v5.192
				C28.328,30.09,31.993,30.071,34.434,30.071z"/>
		</g>
		<g>
			<polygon fill="#FFFFFF" points="7.313,39.281 12.813,39.281 12.813,51.688 18.5,51.688 18.5,39.281 24.719,39.281 24.719,51.688 
				41.167,51.688 41.167,46.584 30.375,46.542 30.375,44.459 36.375,44.438 36.391,41.422 30.375,41.422 30.391,39.281 
				39.75,39.281 39.766,34.156 7.146,34.156 7.146,39.333 			"/>
			<path d="M41.667,52.188H24.219V39.781H19v12.406h-6.688V39.781l-5.018,0.029l-0.648,0.201v-6.355h33.621l-0.019,6.125h-9.361
				l-0.008,1.141h6.014l-0.021,4.014l-5.998,0.021v1.087l10.792,0.042V52.188z M25.219,51.188h15.448v-4.105L29.875,47.04v-3.079
				l6.002-0.021l0.011-2.018h-6.017l0.022-3.141h9.357l0.013-4.125H7.646v4.125h5.667v12.406H18V38.781h7.219V51.188z"/>
		</g>
		<g>
			<path fill="#FFFFFF" d="M58.375,39.292v-5.136h-9.167c0,0-8.458,0.262-8.583,8.428s7.417,8.832,8.167,9.104s9.583,0,9.583,0V46.5
				l-8.417-0.166c0,0-3.417-0.043-3.125-3.584s2.875-3.25,3.292-3.208S58.375,39.292,58.375,39.292z"/>
			<path d="M51.61,52.309c-2.572,0-2.843-0.099-2.988-0.151c-0.066-0.023-0.196-0.049-0.373-0.087
				c-5.469-1.173-8.202-4.367-8.124-9.494c0.131-8.544,8.979-8.917,9.068-8.92h9.682v6.117l-0.481,0.019
				c-0.279,0.01-6.841,0.254-8.089,0.254c-0.115,0-0.193-0.003-0.229-0.007c-0.079-0.008-0.2-0.021-0.357-0.021
				c-0.984,0-2.197,0.481-2.385,2.772c-0.076,0.921,0.121,1.648,0.583,2.161c0.765,0.848,2.038,0.882,2.051,0.882l8.909,0.176v6.163
				l-0.485,0.015C58.351,52.188,54.424,52.309,51.61,52.309z M49.208,34.656c-0.31,0.011-7.967,0.353-8.083,7.936
				c-0.106,6.905,5.493,8.106,7.333,8.501c0.241,0.052,0.415,0.092,0.504,0.125c0.069,0.019,0.486,0.091,2.647,0.091
				c2.215,0,5.127-0.075,6.265-0.106V46.99l-7.926-0.156c-0.066-0.001-1.705-0.035-2.768-1.203c-0.661-0.727-0.946-1.71-0.846-2.922
				c0.274-3.33,2.457-3.69,3.382-3.69c0.203,0,0.36,0.016,0.447,0.025l0.14,0.002c1.036,0,5.995-0.178,7.571-0.235v-4.154H49.208z"
				/>
		</g>
		<g>
			<polygon fill="#FFFFFF" points="59.125,34.156 59.125,51.688 64.792,51.688 64.792,45.25 70.042,51.809 75.667,51.809 
				75.667,34.156 69.833,34.156 69.833,40.459 64.833,34.156 			"/>
			<path d="M76.167,52.309h-6.365l-4.51-5.634v5.513h-6.667V33.656h6.45l4.258,5.368v-5.368h6.833V52.309z M70.282,51.309h4.885
				V34.656h-4.833v7.237l-5.742-7.237h-4.967v16.531h4.667v-7.362L70.282,51.309z"/>
		</g>
	</g>
</g>
<path fill="none" d="M71.625,3.25"/>
<line fill="none" stroke="#000000" stroke-miterlimit="10" x1="95.938" y1="13.875" x2="94.188" y2="19.125"/>
<path fill="#FFFFFF" stroke="#000000" stroke-miterlimit="10" d="M145.042,9.708h-10.416l-5.876,17.25V9.708h-6.833v7.625
	l-6.042-7.625h-6.916v19.5l-6.542-19.5H92.083l-4.875,14.5c0,0,10.885,0.135,11.807,0.042s1.234,0.891,1.234,0.891l-0.016,2.031
	l0.063,0.125l1.245,3.313h14.25l-0.011-7.734l6.22,7.734h13.291l1.292-3.692l6.104-0.021l1.28,3.713h7.969L145.042,9.708z
	 M94.516,22.734l2.938-8.109l2.703,8.109H94.516z M137.031,22.75l2.938-8.125l2.75,8.125H137.031z"/>
<path fill="#FFFFFF" stroke="#000000" stroke-miterlimit="10" d="M93.406,37.334c0,0-2.938,0.135-3.703-0.1s-0.787-1.359-0.87-1.484
	s-0.375,0.542-1.625,1s-2.375,0.584-2.375,0.584H78.25c-0.344,0.084-0.531,0.291-0.531,0.291s-2.406,2.031-1.5,7.844
	s6.813,6.813,9.969,6.906s10.313-1.969,10-8.771S93.406,37.334,93.406,37.334z M88.219,46.969c-0.094,0.094-2.365,0.864-4.198,0.114
	s-1.688-4.188-1.688-4.188s-0.162-0.864,0.385-2.021s1.563-1.641,3.281-1.656s3.719-0.016,3.859,3.578S88.313,46.875,88.219,46.969z
	"/>
<path fill="#FFFFFF" stroke="#000000" stroke-miterlimit="10" d="M97.031,37.328h2.563c0,0,1.953,0.297,1.719-1.922
	s0.02-1.016,0.02-1.016h1.34l0.031,12.359h9.464v5.083H97.031V37.328z"/>
<path fill="#FFFFFF" stroke="#000000" stroke-miterlimit="10" d="M131.333,38.874c-2.459-4.875-9.125-4.54-9.125-4.54
	c-1.631-0.072-3.958,0.415-3.958,0.415s-3.667,1.042-5.167,4.125s-0.708,6.875-0.708,6.875s1.5,6.459,8.833,6.584
	s9.084-2.959,9.375-3.375S133.792,43.749,131.333,38.874z M125.891,44.656c-0.375,2.594-2.781,2.703-2.781,2.703
	s-2.141,0.344-3.438-0.594s-1.172-3.719-1.172-3.719c-0.094-0.203,0.375-2.453,0.547-2.531s0.359-1.188,2.563-1.266
	s2.563,0.25,3.188,0.656S126.266,42.063,125.891,44.656z"/>
<path fill="#FFFFFF" stroke="#000000" stroke-miterlimit="10" d="M142.354,34.313c0,0-5.823-0.125-8.417,3.719s-1,7.75-1,7.75
	s0.719,2.469,2.25,3.594s2.375,1.969,5.625,2.375s9.584,0.188,9.584,0.188V39.5v-5.188H142.354z M150.391,43.031h-5.547v3.688
	c0,0-0.281,0.063-2.172-0.234s-3.859-0.484-3.875-3.625s3.344-3.219,3.344-3.219l8.25-0.141V43.031z"/>
<path fill="#FFFFFF" stroke="#000000" stroke-miterlimit="10" d="M175.125,48.083c0,0-3.922-11.364-4.188-12.677
	s-1.391-1.137-1.391-1.137s-4.797,0.324-6.328,0.043s-1.734,0.922-1.734,0.922l-0.172,0.672l-4.854,14.375v-0.323V34.313h-5.625
	v17.601l10.416-0.019c0,0,0.703,0.09,0.938-0.129s0.484-0.688,0.484-0.688l0.844-2.359c0,0,3.547-0.047,4.438-0.031
	s1.313,1.375,1.516,2.344s0.859,0.859,0.859,0.859h6.078L175.125,48.083z M163.766,45.109l2.438-6.797l2.281,6.797H163.766z"/>
<path fill="#FFFFFF" stroke="#000000" stroke-miterlimit="10" d="M97.874,34.635l-0.02-1.69h5.043v-2.663H97.94l-0.045-1.711
	l7.775-0.021l-0.023-4.374H89.75l-0.234,1.299c0,0-1.538-1.754-7.99-1.299c-6.453,0.455-8.943-0.075-8.943-0.075v4.514h3.053v10.503
	h9.312c0,0,4.223,0.15,5.761-2.254c1.538-2.402,1.501-5.197,1.538-8.25c0.036-3.053,0.498,0.671,0.498,0.671v9.833h14.175v-4.49
	L97.874,34.635z M86.462,32.814c-0.909,2.6-2.165,2.512-2.165,2.512h-3.617v-7.562c0,0,0.477,0.503,2.577,0.048
	C85.358,27.358,87.373,30.216,86.462,32.814z"/>
<g>
	<polygon fill="#FFFFFF" points="155.234,52.406 157,52.406 156.344,53.938 155.234,53.781 	"/>
</g>
<polygon fill="#FFFFFF" points="108.391,31.109 110.328,31.109 109.953,32.531 108.578,32.531 "/>
</svg>
